<svg xmlns="http://www.w3.org/2000/svg" viewBox="0 0 24 24" role="img" aria-label="PDF">
  <path fill="#d93025" d="M6 2h8l5 5v15H6z"/>
  <path fill="#fff" opacity=".9" d="M14 2v6h5z"/>
  <path fill="#fff" d="M5 11h14a1 1 0 0 1 1 1v5a1 1 0 0 1-1 1H5a1 1 0 0 1-1-1v-5a1 1 0 0 1 1-1z"/>
  <path fill="#d93025" d="M7.1 16v-4h1.7c.9 0 1.5.5 1.5 1.3s-.6 1.3-1.5 1.3h-.7V16h-1zm1-2.2h.6c.4 0 .6-.2.6-.5s-.2-.5-.6-.5h-.6v1zm3 2.2v-4h1.5c1.2 0 2 .8 2 2s-.8 2-2 2h-1.5zm1-.8h.5c.7 0 1.1-.4 1.1-1.2s-.4-1.2-1.1-1.2h-.5v2.4zm3.4.8v-4h2.7v.8h-1.7v.9H18v.8h-1.5V16h-1z"/>
</svg>
